<?xml version="1.0" standalone="no"?>
<!DOCTYPE svg PUBLIC "-//W3C//DTD SVG 20010904//EN"
 "http://www.w3.org/TR/2001/REC-SVG-20010904/DTD/svg10.dtd">
<svg version="1.0" xmlns="http://www.w3.org/2000/svg"
 width="700.000000pt" height="700.000000pt" viewBox="0 0 700.000000 700.000000"
 preserveAspectRatio="xMidYMid meet">
<metadata>
Created by potrace 1.11, written by Peter Selinger 2001-2013
</metadata>
<g transform="translate(0.000000,700.000000) scale(0.100000,-0.100000)"
fill="#000000" stroke="none">
<path d="M3289 6340 c-695 -59 -1314 -344 -1799 -830 -220 -219 -389 -452
-523 -718 -164 -324 -257 -631 -298 -987 -16 -141 -16 -469 0 -610 137 -1180
967 -2143 2111 -2449 234 -62 454 -90 720 -89 211 0 325 10 515 44 1123 204
2028 1086 2269 2211 43 201 59 356 59 588 0 473 -95 871 -311 1294 -427 839
-1248 1415 -2180 1530 -155 20 -428 27 -563 16z m431 -2075 l0 -545 545 0 545
0 0 -220 0 -220 -545 0 -545 0 0 -545 0 -545 -220 0 -220 0 0 545 0 545 -545
0 -545 0 0 220 0 220 545 0 545 0 0 545 0 545 220 0 220 0 0 -545z"/>
</g>
</svg>
